<svg width="24" height="24" viewBox="0 0 24 24" fill="none" xmlns="http://www.w3.org/2000/svg">
    <path fill-rule="evenodd" clip-rule="evenodd" d="M11.9999 8.00002C11.7719 8.00002 11.5449 8.07702 11.3599 8.23202L5.35991 13.232C4.93591 13.585 4.87791 14.216 5.23191 14.64C5.58491 15.064 6.21491 15.121 6.63991 14.768L12.0109 10.292L17.3729 14.607C17.8029 14.953 18.4329 14.885 18.7789 14.455C19.1249 14.025 19.0569 13.396 18.6269 13.049L12.6269 8.22102C12.4439 8.07402 12.2219 8.00002 11.9999 8.00002Z" fill="#1750FF"/>
    <mask id="mask0_52_2437" style="mask-type:luminance" maskUnits="userSpaceOnUse" x="5" y="8" width="14" height="7">
        <path fill-rule="evenodd" clip-rule="evenodd" d="M11.9999 8.00002C11.7719 8.00002 11.5449 8.07702 11.3599 8.23202L5.35991 13.232C4.93591 13.585 4.87791 14.216 5.23191 14.64C5.58491 15.064 6.21491 15.121 6.63991 14.768L12.0109 10.292L17.3729 14.607C17.8029 14.953 18.4329 14.885 18.7789 14.455C19.1249 14.025 19.0569 13.396 18.6269 13.049L12.6269 8.22102C12.4439 8.07402 12.2219 8.00002 11.9999 8.00002Z" fill="white"/>
    </mask>
    <g mask="url(#mask0_52_2437)">
        <rect width="24" height="24" transform="matrix(1 0 0 -1 0 24)" fill="#1750FF"/>
    </g>
</svg>
