<svg width="25" height="25" viewBox="0 0 20 20" fill="none" xmlns="http://www.w3.org/2000/svg">
    <g filter="url(#filter0_d_52_2519)">
        <path d="M10 7.5C12.982 7.5 16 6.4695 16 4.5C16 2.5305 12.982 1.5 10 1.5C7.018 1.5 4 2.5305 4 4.5C4 6.4695 7.018 7.5 10 7.5Z" fill="#282B31"/>
        <path d="M4 7.5C4 9.4695 7.018 10.5 10 10.5C12.982 10.5 16 9.4695 16 7.5V6C16 7.9695 12.982 9 10 9C7.018 9 4 7.9695 4 6V7.5Z" fill="#282B31"/>
        <path d="M4 10.5C4 12.4695 7.018 13.5 10 13.5C12.982 13.5 16 12.4695 16 10.5V9C16 10.9695 12.982 12 10 12C7.018 12 4 10.9695 4 9V10.5Z" fill="#282B31"/>
        <path d="M4 13.5C4 15.4695 7.018 16.5 10 16.5C12.982 16.5 16 15.4695 16 13.5V12C16 13.9695 12.982 15 10 15C7.018 15 4 13.9695 4 12V13.5Z" fill="#282B31"/>
    </g>
</svg>
