<svg width="22" height="24" viewBox="0 0 24 26" fill="none" xmlns="http://www.w3.org/2000/svg">
    <g filter="url(#filter0_d_52_2505)">
        <path fill-rule="evenodd" clip-rule="evenodd" d="M18.8888 18.3184C18.7168 17.8854 18.4728 17.5074 18.2588 17.1844C18.1508 17.0224 18.0398 16.8574 17.9428 16.6874C17.5538 16.0114 17.6878 15.7374 18.3188 14.6804L18.4208 14.5074C18.9318 13.6464 18.9598 12.8204 18.9858 12.0924C18.9978 11.7344 19.0098 11.3974 19.0788 11.0804C19.2398 10.3484 20.7868 10.1534 21.7458 10.0384C21.9068 10.6674 21.9998 11.3224 21.9998 12.0004C21.9998 14.5694 20.7778 16.8534 18.8888 18.3184ZM13.9998 4.0004C14.6158 4.0004 15.2108 4.0764 15.7868 4.2084C15.6178 4.5804 15.3568 4.9194 15.0128 5.1884C14.7948 5.3604 14.5498 5.5034 14.3068 5.6484C13.6558 6.0364 12.9188 6.4764 12.4568 7.3224C11.8408 8.4524 11.8408 9.6064 11.8408 10.6244C11.8408 11.9794 11.7968 12.7804 10.8928 13.4874C9.52376 14.5604 7.42876 13.9614 6.13276 13.4164C6.05076 12.9554 5.99976 12.4834 5.99976 12.0004C5.99976 7.5894 9.58876 4.0004 13.9998 4.0004ZM13.9998 2.0004C8.48576 2.0004 3.99976 6.4864 3.99976 12.0004C3.99976 17.5134 8.48576 22.0004 13.9998 22.0004C19.5138 22.0004 23.9998 17.5134 23.9998 12.0004C23.9998 6.4864 19.5138 2.0004 13.9998 2.0004Z" fill="#A6ADB1"/>
        <mask id="mask0_52_2505" style="mask-type:luminance" maskUnits="userSpaceOnUse" x="3" y="2" width="21" height="21">
            <path fill-rule="evenodd" clip-rule="evenodd" d="M18.8888 18.3184C18.7168 17.8854 18.4728 17.5074 18.2588 17.1844C18.1508 17.0224 18.0398 16.8574 17.9428 16.6874C17.5538 16.0114 17.6878 15.7374 18.3188 14.6804L18.4208 14.5074C18.9318 13.6464 18.9598 12.8204 18.9858 12.0924C18.9978 11.7344 19.0098 11.3974 19.0788 11.0804C19.2398 10.3484 20.7868 10.1534 21.7458 10.0384C21.9068 10.6674 21.9998 11.3224 21.9998 12.0004C21.9998 14.5694 20.7778 16.8534 18.8888 18.3184ZM13.9998 4.0004C14.6158 4.0004 15.2108 4.0764 15.7868 4.2084C15.6178 4.5804 15.3568 4.9194 15.0128 5.1884C14.7948 5.3604 14.5498 5.5034 14.3068 5.6484C13.6558 6.0364 12.9188 6.4764 12.4568 7.3224C11.8408 8.4524 11.8408 9.6064 11.8408 10.6244C11.8408 11.9794 11.7968 12.7804 10.8928 13.4874C9.52376 14.5604 7.42876 13.9614 6.13276 13.4164C6.05076 12.9554 5.99976 12.4834 5.99976 12.0004C5.99976 7.5894 9.58876 4.0004 13.9998 4.0004ZM13.9998 2.0004C8.48576 2.0004 3.99976 6.4864 3.99976 12.0004C3.99976 17.5134 8.48576 22.0004 13.9998 22.0004C19.5138 22.0004 23.9998 17.5134 23.9998 12.0004C23.9998 6.4864 19.5138 2.0004 13.9998 2.0004Z" fill="white"/>
        </mask>
        <g mask="url(#mask0_52_2505)">
            <rect x="2" width="24" height="24" fill="black"/>
        </g>
    </g>
    <defs>
        <filter id="filter0_d_52_2505" x="-2" y="0" width="32" height="32" filterUnits="userSpaceOnUse" color-interpolation-filters="sRGB">
            <feFlood flood-opacity="0" result="BackgroundImageFix"/>
            <feColorMatrix in="SourceAlpha" type="matrix" values="0 0 0 0 0 0 0 0 0 0 0 0 0 0 0 0 0 0 127 0" result="hardAlpha"/>
            <feOffset dy="4"/>
            <feGaussianBlur stdDeviation="2"/>
            <feComposite in2="hardAlpha" operator="out"/>
            <feColorMatrix type="matrix" values="0 0 0 0 0 0 0 0 0 0 0 0 0 0 0 0 0 0 0.25 0"/>
            <feBlend mode="normal" in2="BackgroundImageFix" result="effect1_dropShadow_52_2505"/>
            <feBlend mode="normal" in="SourceGraphic" in2="effect1_dropShadow_52_2505" result="shape"/>
        </filter>
    </defs>
</svg>